<mxfile host="app.diagrams.net" modified="2022-05-10T13:24:09.875Z" agent="5.0 (Macintosh; Intel Mac OS X 10_15_7) AppleWebKit/537.36 (KHTML, like Gecko) Chrome/100.0.4896.88 Safari/537.36" etag="9eDq1x-fZ0Uv9kY4atDp" version="18.0.2" type="github">
  <diagram id="shJOujlL5YY14u-s4mY1" name="Page-1">
    <mxGraphModel dx="1011" dy="623" grid="1" gridSize="10" guides="1" tooltips="1" connect="1" arrows="1" fold="1" page="1" pageScale="1" pageWidth="827" pageHeight="1169" math="0" shadow="0">
      <root>
        <mxCell id="0" />
        <mxCell id="1" parent="0" />
        <mxCell id="rsRlFiuvsZik1qRaLmXJ-1" value="&lt;font style=&quot;font-size: 18px;&quot;&gt;Producer&lt;/font&gt;" style="ellipse;whiteSpace=wrap;html=1;fillColor=#ffe6cc;strokeColor=#d79b00;" vertex="1" parent="1">
          <mxGeometry x="100" y="217" width="80" height="60" as="geometry" />
        </mxCell>
        <mxCell id="rsRlFiuvsZik1qRaLmXJ-2" value="Kafka Cluster" style="swimlane;fontSize=18;" vertex="1" parent="1">
          <mxGeometry x="250" y="400" width="540" height="450" as="geometry" />
        </mxCell>
        <mxCell id="rsRlFiuvsZik1qRaLmXJ-50" value="" style="rounded=1;whiteSpace=wrap;html=1;fontSize=16;fillColor=#e1d5e7;strokeColor=#9673a6;" vertex="1" parent="rsRlFiuvsZik1qRaLmXJ-2">
          <mxGeometry x="129" y="30.5" width="355" height="119.5" as="geometry" />
        </mxCell>
        <mxCell id="rsRlFiuvsZik1qRaLmXJ-53" value="&lt;span style=&quot;color: rgb(51, 51, 51); font-family: &amp;quot;Helvetica Neue&amp;quot;, Helvetica, Arial, sans-serif; font-size: 14px; text-align: start; background-color: rgb(255, 255, 255);&quot;&gt;brokker1:172.28.0.100:9092&lt;/span&gt;" style="text;html=1;strokeColor=none;fillColor=none;align=center;verticalAlign=middle;whiteSpace=wrap;rounded=0;fontSize=16;" vertex="1" parent="rsRlFiuvsZik1qRaLmXJ-2">
          <mxGeometry x="241" y="24" width="108" height="30" as="geometry" />
        </mxCell>
        <mxCell id="rsRlFiuvsZik1qRaLmXJ-3" value="" style="endArrow=classic;html=1;rounded=0;fontSize=18;" edge="1" parent="1">
          <mxGeometry width="50" height="50" relative="1" as="geometry">
            <mxPoint x="182" y="247" as="sourcePoint" />
            <mxPoint x="302" y="246.5" as="targetPoint" />
          </mxGeometry>
        </mxCell>
        <mxCell id="rsRlFiuvsZik1qRaLmXJ-4" value="Broker" style="rounded=0;whiteSpace=wrap;html=1;fontSize=18;fillColor=#e1d5e7;strokeColor=#9673a6;" vertex="1" parent="1">
          <mxGeometry x="308" y="217" width="139" height="60" as="geometry" />
        </mxCell>
        <mxCell id="rsRlFiuvsZik1qRaLmXJ-5" value="支付服务" style="text;html=1;align=center;verticalAlign=middle;resizable=0;points=[];autosize=1;strokeColor=none;fillColor=none;fontSize=18;" vertex="1" parent="1">
          <mxGeometry x="94" y="179" width="90" height="30" as="geometry" />
        </mxCell>
        <mxCell id="rsRlFiuvsZik1qRaLmXJ-6" value="Kafka服务器" style="text;html=1;align=center;verticalAlign=middle;resizable=0;points=[];autosize=1;strokeColor=none;fillColor=none;fontSize=18;" vertex="1" parent="1">
          <mxGeometry x="322" y="177" width="120" height="30" as="geometry" />
        </mxCell>
        <mxCell id="rsRlFiuvsZik1qRaLmXJ-7" value="&lt;span style=&quot;font-size: 18px;&quot;&gt;Consumer Group1&lt;/span&gt;" style="ellipse;whiteSpace=wrap;html=1;fillColor=#d5e8d4;strokeColor=#82b366;" vertex="1" parent="1">
          <mxGeometry x="541" y="160" width="220" height="63" as="geometry" />
        </mxCell>
        <mxCell id="rsRlFiuvsZik1qRaLmXJ-8" value="" style="endArrow=classic;html=1;rounded=0;fontSize=18;" edge="1" parent="1">
          <mxGeometry width="50" height="50" relative="1" as="geometry">
            <mxPoint x="540" y="200" as="sourcePoint" />
            <mxPoint x="450" y="240" as="targetPoint" />
          </mxGeometry>
        </mxCell>
        <mxCell id="rsRlFiuvsZik1qRaLmXJ-9" value="&lt;font style=&quot;font-size: 15px;&quot;&gt;write&lt;/font&gt;" style="text;html=1;align=center;verticalAlign=middle;resizable=0;points=[];autosize=1;strokeColor=none;fillColor=none;fontSize=18;" vertex="1" parent="1">
          <mxGeometry x="215" y="222" width="50" height="30" as="geometry" />
        </mxCell>
        <mxCell id="rsRlFiuvsZik1qRaLmXJ-11" value="&lt;font style=&quot;font-size: 18px;&quot;&gt;Producer&lt;/font&gt;" style="ellipse;whiteSpace=wrap;html=1;fillColor=#ffe6cc;strokeColor=#d79b00;" vertex="1" parent="1">
          <mxGeometry x="119" y="420" width="81" height="50" as="geometry" />
        </mxCell>
        <mxCell id="rsRlFiuvsZik1qRaLmXJ-12" value="&lt;font style=&quot;font-size: 18px;&quot;&gt;Producer&lt;/font&gt;" style="ellipse;whiteSpace=wrap;html=1;fillColor=#ffe6cc;strokeColor=#d79b00;" vertex="1" parent="1">
          <mxGeometry x="119" y="493" width="81" height="50" as="geometry" />
        </mxCell>
        <mxCell id="rsRlFiuvsZik1qRaLmXJ-30" value="财务报表服务" style="text;html=1;align=center;verticalAlign=middle;resizable=0;points=[];autosize=1;strokeColor=none;fillColor=none;fontSize=16;" vertex="1" parent="1">
          <mxGeometry x="582" y="137" width="110" height="20" as="geometry" />
        </mxCell>
        <mxCell id="rsRlFiuvsZik1qRaLmXJ-47" value="三个订单服务" style="text;html=1;align=center;verticalAlign=middle;resizable=0;points=[];autosize=1;strokeColor=none;fillColor=none;fontSize=16;" vertex="1" parent="1">
          <mxGeometry x="105" y="360" width="110" height="20" as="geometry" />
        </mxCell>
        <mxCell id="rsRlFiuvsZik1qRaLmXJ-51" value="" style="rounded=1;whiteSpace=wrap;html=1;fontSize=16;fillColor=#e1d5e7;strokeColor=#9673a6;" vertex="1" parent="1">
          <mxGeometry x="375" y="560.5" width="355" height="129.5" as="geometry" />
        </mxCell>
        <mxCell id="rsRlFiuvsZik1qRaLmXJ-52" value="" style="rounded=1;whiteSpace=wrap;html=1;fontSize=16;fillColor=#e1d5e7;strokeColor=#9673a6;" vertex="1" parent="1">
          <mxGeometry x="376" y="701.5" width="365" height="129.5" as="geometry" />
        </mxCell>
        <mxCell id="rsRlFiuvsZik1qRaLmXJ-55" value="&lt;span style=&quot;color: rgb(51, 51, 51); font-family: &amp;quot;Helvetica Neue&amp;quot;, Helvetica, Arial, sans-serif; font-size: 14px; text-align: start; background-color: rgb(255, 255, 255);&quot;&gt;brokker2:172.28.0.101:9092&lt;/span&gt;" style="text;html=1;strokeColor=none;fillColor=none;align=center;verticalAlign=middle;whiteSpace=wrap;rounded=0;fontSize=16;" vertex="1" parent="1">
          <mxGeometry x="492" y="555" width="108" height="30" as="geometry" />
        </mxCell>
        <mxCell id="rsRlFiuvsZik1qRaLmXJ-56" value="&lt;span style=&quot;color: rgb(51, 51, 51); font-family: &amp;quot;Helvetica Neue&amp;quot;, Helvetica, Arial, sans-serif; font-size: 14px; text-align: start; background-color: rgb(255, 255, 255);&quot;&gt;brokker3:172.28.0.102:9092&lt;/span&gt;" style="text;html=1;strokeColor=none;fillColor=none;align=center;verticalAlign=middle;whiteSpace=wrap;rounded=0;fontSize=16;" vertex="1" parent="1">
          <mxGeometry x="500" y="695" width="108" height="30" as="geometry" />
        </mxCell>
        <mxCell id="rsRlFiuvsZik1qRaLmXJ-74" value="" style="shape=table;startSize=0;container=1;collapsible=0;childLayout=tableLayout;fontSize=14;" vertex="1" parent="1">
          <mxGeometry x="460" y="473" width="250" height="30" as="geometry" />
        </mxCell>
        <mxCell id="rsRlFiuvsZik1qRaLmXJ-75" value="" style="shape=tableRow;horizontal=0;startSize=0;swimlaneHead=0;swimlaneBody=0;top=0;left=0;bottom=0;right=0;collapsible=0;dropTarget=0;fillColor=none;points=[[0,0.5],[1,0.5]];portConstraint=eastwest;fontSize=14;" vertex="1" parent="rsRlFiuvsZik1qRaLmXJ-74">
          <mxGeometry width="250" height="30" as="geometry" />
        </mxCell>
        <mxCell id="rsRlFiuvsZik1qRaLmXJ-76" value="1" style="shape=partialRectangle;html=1;whiteSpace=wrap;connectable=0;overflow=hidden;fillColor=none;top=0;left=0;bottom=0;right=0;pointerEvents=1;fontSize=14;" vertex="1" parent="rsRlFiuvsZik1qRaLmXJ-75">
          <mxGeometry width="50" height="30" as="geometry">
            <mxRectangle width="50" height="30" as="alternateBounds" />
          </mxGeometry>
        </mxCell>
        <mxCell id="rsRlFiuvsZik1qRaLmXJ-77" value="2" style="shape=partialRectangle;html=1;whiteSpace=wrap;connectable=0;overflow=hidden;fillColor=none;top=0;left=0;bottom=0;right=0;pointerEvents=1;fontSize=14;" vertex="1" parent="rsRlFiuvsZik1qRaLmXJ-75">
          <mxGeometry x="50" width="50" height="30" as="geometry">
            <mxRectangle width="50" height="30" as="alternateBounds" />
          </mxGeometry>
        </mxCell>
        <mxCell id="rsRlFiuvsZik1qRaLmXJ-78" value="3" style="shape=partialRectangle;html=1;whiteSpace=wrap;connectable=0;overflow=hidden;fillColor=none;top=0;left=0;bottom=0;right=0;pointerEvents=1;fontSize=14;" vertex="1" parent="rsRlFiuvsZik1qRaLmXJ-75">
          <mxGeometry x="100" width="50" height="30" as="geometry">
            <mxRectangle width="50" height="30" as="alternateBounds" />
          </mxGeometry>
        </mxCell>
        <mxCell id="rsRlFiuvsZik1qRaLmXJ-79" value="4" style="shape=partialRectangle;html=1;whiteSpace=wrap;connectable=0;overflow=hidden;fillColor=none;top=0;left=0;bottom=0;right=0;pointerEvents=1;fontSize=14;" vertex="1" parent="rsRlFiuvsZik1qRaLmXJ-75">
          <mxGeometry x="150" width="50" height="30" as="geometry">
            <mxRectangle width="50" height="30" as="alternateBounds" />
          </mxGeometry>
        </mxCell>
        <mxCell id="rsRlFiuvsZik1qRaLmXJ-80" value="5" style="shape=partialRectangle;html=1;whiteSpace=wrap;connectable=0;overflow=hidden;fillColor=none;top=0;left=0;bottom=0;right=0;pointerEvents=1;fontSize=14;" vertex="1" parent="rsRlFiuvsZik1qRaLmXJ-75">
          <mxGeometry x="200" width="50" height="30" as="geometry">
            <mxRectangle width="50" height="30" as="alternateBounds" />
          </mxGeometry>
        </mxCell>
        <mxCell id="rsRlFiuvsZik1qRaLmXJ-81" value="payinfo-0" style="text;html=1;align=center;verticalAlign=middle;resizable=0;points=[];autosize=1;strokeColor=none;fillColor=none;fontSize=14;" vertex="1" parent="1">
          <mxGeometry x="385" y="477" width="70" height="20" as="geometry" />
        </mxCell>
        <mxCell id="rsRlFiuvsZik1qRaLmXJ-92" value="" style="shape=table;startSize=0;container=1;collapsible=0;childLayout=tableLayout;fontSize=14;" vertex="1" parent="1">
          <mxGeometry x="460" y="616" width="250" height="30" as="geometry" />
        </mxCell>
        <mxCell id="rsRlFiuvsZik1qRaLmXJ-93" value="" style="shape=tableRow;horizontal=0;startSize=0;swimlaneHead=0;swimlaneBody=0;top=0;left=0;bottom=0;right=0;collapsible=0;dropTarget=0;fillColor=none;points=[[0,0.5],[1,0.5]];portConstraint=eastwest;fontSize=14;" vertex="1" parent="rsRlFiuvsZik1qRaLmXJ-92">
          <mxGeometry width="250" height="30" as="geometry" />
        </mxCell>
        <mxCell id="rsRlFiuvsZik1qRaLmXJ-94" value="1" style="shape=partialRectangle;html=1;whiteSpace=wrap;connectable=0;overflow=hidden;fillColor=none;top=0;left=0;bottom=0;right=0;pointerEvents=1;fontSize=14;" vertex="1" parent="rsRlFiuvsZik1qRaLmXJ-93">
          <mxGeometry width="50" height="30" as="geometry">
            <mxRectangle width="50" height="30" as="alternateBounds" />
          </mxGeometry>
        </mxCell>
        <mxCell id="rsRlFiuvsZik1qRaLmXJ-95" value="2" style="shape=partialRectangle;html=1;whiteSpace=wrap;connectable=0;overflow=hidden;fillColor=none;top=0;left=0;bottom=0;right=0;pointerEvents=1;fontSize=14;" vertex="1" parent="rsRlFiuvsZik1qRaLmXJ-93">
          <mxGeometry x="50" width="50" height="30" as="geometry">
            <mxRectangle width="50" height="30" as="alternateBounds" />
          </mxGeometry>
        </mxCell>
        <mxCell id="rsRlFiuvsZik1qRaLmXJ-96" value="3" style="shape=partialRectangle;html=1;whiteSpace=wrap;connectable=0;overflow=hidden;fillColor=none;top=0;left=0;bottom=0;right=0;pointerEvents=1;fontSize=14;" vertex="1" parent="rsRlFiuvsZik1qRaLmXJ-93">
          <mxGeometry x="100" width="50" height="30" as="geometry">
            <mxRectangle width="50" height="30" as="alternateBounds" />
          </mxGeometry>
        </mxCell>
        <mxCell id="rsRlFiuvsZik1qRaLmXJ-97" value="4" style="shape=partialRectangle;html=1;whiteSpace=wrap;connectable=0;overflow=hidden;fillColor=none;top=0;left=0;bottom=0;right=0;pointerEvents=1;fontSize=14;" vertex="1" parent="rsRlFiuvsZik1qRaLmXJ-93">
          <mxGeometry x="150" width="50" height="30" as="geometry">
            <mxRectangle width="50" height="30" as="alternateBounds" />
          </mxGeometry>
        </mxCell>
        <mxCell id="rsRlFiuvsZik1qRaLmXJ-98" value="5" style="shape=partialRectangle;html=1;whiteSpace=wrap;connectable=0;overflow=hidden;fillColor=none;top=0;left=0;bottom=0;right=0;pointerEvents=1;fontSize=14;" vertex="1" parent="rsRlFiuvsZik1qRaLmXJ-93">
          <mxGeometry x="200" width="50" height="30" as="geometry">
            <mxRectangle width="50" height="30" as="alternateBounds" />
          </mxGeometry>
        </mxCell>
        <mxCell id="rsRlFiuvsZik1qRaLmXJ-99" value="payinfo-1" style="text;html=1;align=center;verticalAlign=middle;resizable=0;points=[];autosize=1;strokeColor=none;fillColor=none;fontSize=14;" vertex="1" parent="1">
          <mxGeometry x="385" y="620" width="70" height="20" as="geometry" />
        </mxCell>
        <mxCell id="rsRlFiuvsZik1qRaLmXJ-100" value="" style="shape=table;startSize=0;container=1;collapsible=0;childLayout=tableLayout;fontSize=14;" vertex="1" parent="1">
          <mxGeometry x="470" y="746" width="250" height="30" as="geometry" />
        </mxCell>
        <mxCell id="rsRlFiuvsZik1qRaLmXJ-101" value="" style="shape=tableRow;horizontal=0;startSize=0;swimlaneHead=0;swimlaneBody=0;top=0;left=0;bottom=0;right=0;collapsible=0;dropTarget=0;fillColor=none;points=[[0,0.5],[1,0.5]];portConstraint=eastwest;fontSize=14;" vertex="1" parent="rsRlFiuvsZik1qRaLmXJ-100">
          <mxGeometry width="250" height="30" as="geometry" />
        </mxCell>
        <mxCell id="rsRlFiuvsZik1qRaLmXJ-102" value="1" style="shape=partialRectangle;html=1;whiteSpace=wrap;connectable=0;overflow=hidden;fillColor=none;top=0;left=0;bottom=0;right=0;pointerEvents=1;fontSize=14;" vertex="1" parent="rsRlFiuvsZik1qRaLmXJ-101">
          <mxGeometry width="50" height="30" as="geometry">
            <mxRectangle width="50" height="30" as="alternateBounds" />
          </mxGeometry>
        </mxCell>
        <mxCell id="rsRlFiuvsZik1qRaLmXJ-103" value="2" style="shape=partialRectangle;html=1;whiteSpace=wrap;connectable=0;overflow=hidden;fillColor=none;top=0;left=0;bottom=0;right=0;pointerEvents=1;fontSize=14;" vertex="1" parent="rsRlFiuvsZik1qRaLmXJ-101">
          <mxGeometry x="50" width="50" height="30" as="geometry">
            <mxRectangle width="50" height="30" as="alternateBounds" />
          </mxGeometry>
        </mxCell>
        <mxCell id="rsRlFiuvsZik1qRaLmXJ-104" value="3" style="shape=partialRectangle;html=1;whiteSpace=wrap;connectable=0;overflow=hidden;fillColor=none;top=0;left=0;bottom=0;right=0;pointerEvents=1;fontSize=14;" vertex="1" parent="rsRlFiuvsZik1qRaLmXJ-101">
          <mxGeometry x="100" width="50" height="30" as="geometry">
            <mxRectangle width="50" height="30" as="alternateBounds" />
          </mxGeometry>
        </mxCell>
        <mxCell id="rsRlFiuvsZik1qRaLmXJ-105" value="4" style="shape=partialRectangle;html=1;whiteSpace=wrap;connectable=0;overflow=hidden;fillColor=none;top=0;left=0;bottom=0;right=0;pointerEvents=1;fontSize=14;" vertex="1" parent="rsRlFiuvsZik1qRaLmXJ-101">
          <mxGeometry x="150" width="50" height="30" as="geometry">
            <mxRectangle width="50" height="30" as="alternateBounds" />
          </mxGeometry>
        </mxCell>
        <mxCell id="rsRlFiuvsZik1qRaLmXJ-106" value="5" style="shape=partialRectangle;html=1;whiteSpace=wrap;connectable=0;overflow=hidden;fillColor=none;top=0;left=0;bottom=0;right=0;pointerEvents=1;fontSize=14;" vertex="1" parent="rsRlFiuvsZik1qRaLmXJ-101">
          <mxGeometry x="200" width="50" height="30" as="geometry">
            <mxRectangle width="50" height="30" as="alternateBounds" />
          </mxGeometry>
        </mxCell>
        <mxCell id="rsRlFiuvsZik1qRaLmXJ-107" value="payinfo-2" style="text;html=1;align=center;verticalAlign=middle;resizable=0;points=[];autosize=1;strokeColor=none;fillColor=none;fontSize=14;" vertex="1" parent="1">
          <mxGeometry x="395" y="750" width="70" height="20" as="geometry" />
        </mxCell>
        <mxCell id="rsRlFiuvsZik1qRaLmXJ-117" value="" style="endArrow=classic;html=1;rounded=0;fontSize=14;exitX=1;exitY=0.5;exitDx=0;exitDy=0;" edge="1" parent="1" source="rsRlFiuvsZik1qRaLmXJ-11">
          <mxGeometry width="50" height="50" relative="1" as="geometry">
            <mxPoint x="210" y="450" as="sourcePoint" />
            <mxPoint x="370" y="500" as="targetPoint" />
          </mxGeometry>
        </mxCell>
        <mxCell id="rsRlFiuvsZik1qRaLmXJ-118" value="" style="endArrow=classic;html=1;rounded=0;fontSize=14;exitX=1.049;exitY=0.64;exitDx=0;exitDy=0;exitPerimeter=0;" edge="1" parent="1" source="rsRlFiuvsZik1qRaLmXJ-11">
          <mxGeometry width="50" height="50" relative="1" as="geometry">
            <mxPoint x="210" y="460" as="sourcePoint" />
            <mxPoint x="370" y="620" as="targetPoint" />
          </mxGeometry>
        </mxCell>
        <mxCell id="rsRlFiuvsZik1qRaLmXJ-119" value="" style="endArrow=classic;html=1;rounded=0;fontSize=14;" edge="1" parent="1">
          <mxGeometry width="50" height="50" relative="1" as="geometry">
            <mxPoint x="200" y="460" as="sourcePoint" />
            <mxPoint x="370" y="770" as="targetPoint" />
          </mxGeometry>
        </mxCell>
        <mxCell id="rsRlFiuvsZik1qRaLmXJ-120" value="" style="endArrow=classic;html=1;rounded=0;fontSize=14;exitX=1;exitY=0.5;exitDx=0;exitDy=0;" edge="1" parent="1">
          <mxGeometry width="50" height="50" relative="1" as="geometry">
            <mxPoint x="200" y="525" as="sourcePoint" />
            <mxPoint x="370" y="510" as="targetPoint" />
          </mxGeometry>
        </mxCell>
        <mxCell id="rsRlFiuvsZik1qRaLmXJ-121" value="" style="endArrow=classic;html=1;rounded=0;fontSize=14;exitX=1.049;exitY=0.64;exitDx=0;exitDy=0;exitPerimeter=0;" edge="1" parent="1">
          <mxGeometry width="50" height="50" relative="1" as="geometry">
            <mxPoint x="203.96900000000005" y="532" as="sourcePoint" />
            <mxPoint x="370" y="630" as="targetPoint" />
          </mxGeometry>
        </mxCell>
        <mxCell id="rsRlFiuvsZik1qRaLmXJ-122" value="" style="endArrow=classic;html=1;rounded=0;fontSize=14;" edge="1" parent="1">
          <mxGeometry width="50" height="50" relative="1" as="geometry">
            <mxPoint x="200" y="540" as="sourcePoint" />
            <mxPoint x="360" y="770" as="targetPoint" />
          </mxGeometry>
        </mxCell>
        <mxCell id="rsRlFiuvsZik1qRaLmXJ-123" value="&lt;font style=&quot;font-size: 11px;&quot;&gt;Consumer Group1&lt;/font&gt;" style="ellipse;whiteSpace=wrap;html=1;fillColor=#d5e8d4;strokeColor=#82b366;" vertex="1" parent="1">
          <mxGeometry x="835" y="447" width="105" height="60" as="geometry" />
        </mxCell>
        <mxCell id="rsRlFiuvsZik1qRaLmXJ-124" value="二个报表服务" style="text;html=1;align=center;verticalAlign=middle;resizable=0;points=[];autosize=1;strokeColor=none;fillColor=none;fontSize=16;" vertex="1" parent="1">
          <mxGeometry x="842" y="367" width="110" height="20" as="geometry" />
        </mxCell>
        <mxCell id="rsRlFiuvsZik1qRaLmXJ-125" value="&lt;span style=&quot;font-size: 11px;&quot;&gt;Consumer Group1&lt;/span&gt;" style="ellipse;whiteSpace=wrap;html=1;fillColor=#d5e8d4;strokeColor=#82b366;" vertex="1" parent="1">
          <mxGeometry x="835" y="527" width="105" height="60" as="geometry" />
        </mxCell>
        <mxCell id="rsRlFiuvsZik1qRaLmXJ-126" value="" style="endArrow=classic;html=1;rounded=0;fontSize=18;" edge="1" parent="1">
          <mxGeometry width="50" height="50" relative="1" as="geometry">
            <mxPoint x="827" y="481" as="sourcePoint" />
            <mxPoint x="747" y="481" as="targetPoint" />
          </mxGeometry>
        </mxCell>
        <mxCell id="rsRlFiuvsZik1qRaLmXJ-128" value="" style="endArrow=classic;html=1;rounded=0;fontSize=18;entryX=1;entryY=0.5;entryDx=0;entryDy=0;" edge="1" parent="1" target="rsRlFiuvsZik1qRaLmXJ-51">
          <mxGeometry width="50" height="50" relative="1" as="geometry">
            <mxPoint x="830" y="570" as="sourcePoint" />
            <mxPoint x="757" y="491" as="targetPoint" />
          </mxGeometry>
        </mxCell>
        <mxCell id="rsRlFiuvsZik1qRaLmXJ-129" value="" style="endArrow=classic;html=1;rounded=0;fontSize=18;entryX=1;entryY=0.5;entryDx=0;entryDy=0;" edge="1" parent="1">
          <mxGeometry width="50" height="50" relative="1" as="geometry">
            <mxPoint x="840" y="580" as="sourcePoint" />
            <mxPoint x="740" y="765.25" as="targetPoint" />
          </mxGeometry>
        </mxCell>
        <mxCell id="rsRlFiuvsZik1qRaLmXJ-146" value="&lt;span style=&quot;font-size: 18px;&quot;&gt;Consumer Group2&lt;/span&gt;" style="ellipse;whiteSpace=wrap;html=1;fillColor=#f8cecc;strokeColor=#b85450;" vertex="1" parent="1">
          <mxGeometry x="546" y="270" width="200" height="63" as="geometry" />
        </mxCell>
        <mxCell id="rsRlFiuvsZik1qRaLmXJ-147" value="" style="endArrow=classic;html=1;rounded=0;fontSize=18;" edge="1" parent="1">
          <mxGeometry width="50" height="50" relative="1" as="geometry">
            <mxPoint x="540" y="300" as="sourcePoint" />
            <mxPoint x="447" y="252" as="targetPoint" />
          </mxGeometry>
        </mxCell>
        <mxCell id="rsRlFiuvsZik1qRaLmXJ-149" value="营销短信服务" style="text;html=1;align=center;verticalAlign=middle;resizable=0;points=[];autosize=1;strokeColor=none;fillColor=none;fontSize=16;" vertex="1" parent="1">
          <mxGeometry x="593" y="247" width="110" height="20" as="geometry" />
        </mxCell>
        <mxCell id="rsRlFiuvsZik1qRaLmXJ-150" value="&lt;span style=&quot;font-size: 11px;&quot;&gt;Consumer Group2&lt;/span&gt;" style="ellipse;whiteSpace=wrap;html=1;fillColor=#f8cecc;strokeColor=#b85450;" vertex="1" parent="1">
          <mxGeometry x="842" y="630" width="105" height="60" as="geometry" />
        </mxCell>
        <mxCell id="rsRlFiuvsZik1qRaLmXJ-151" value="" style="endArrow=classic;html=1;rounded=0;fontSize=18;" edge="1" parent="1">
          <mxGeometry width="50" height="50" relative="1" as="geometry">
            <mxPoint x="840" y="640" as="sourcePoint" />
            <mxPoint x="747" y="491" as="targetPoint" />
          </mxGeometry>
        </mxCell>
        <mxCell id="rsRlFiuvsZik1qRaLmXJ-152" value="" style="endArrow=classic;html=1;rounded=0;fontSize=18;entryX=1;entryY=0.5;entryDx=0;entryDy=0;" edge="1" parent="1">
          <mxGeometry width="50" height="50" relative="1" as="geometry">
            <mxPoint x="840" y="660" as="sourcePoint" />
            <mxPoint x="740" y="635.25" as="targetPoint" />
          </mxGeometry>
        </mxCell>
        <mxCell id="rsRlFiuvsZik1qRaLmXJ-153" value="" style="endArrow=classic;html=1;rounded=0;fontSize=18;" edge="1" parent="1">
          <mxGeometry width="50" height="50" relative="1" as="geometry">
            <mxPoint x="840" y="680" as="sourcePoint" />
            <mxPoint x="750" y="770" as="targetPoint" />
          </mxGeometry>
        </mxCell>
      </root>
    </mxGraphModel>
  </diagram>
</mxfile>
